<?xml version="1.0" encoding="utf-8"?>
<!-- Generator: Adobe Illustrator 16.0.4, SVG Export Plug-In . SVG Version: 6.00 Build 0)  -->
<!DOCTYPE svg PUBLIC "-//W3C//DTD SVG 1.1//EN" "http://www.w3.org/Graphics/SVG/1.1/DTD/svg11.dtd">
<svg version="1.1" id="Layer_1" xmlns="http://www.w3.org/2000/svg" xmlns:xlink="http://www.w3.org/1999/xlink" x="0px" y="0px"
	 width="30px" height="30.938px" viewBox="0 0 30 30.938" enable-background="new 0 0 30 30.938" xml:space="preserve">
<g>
	<g>
		<path fill="#FFFFFF" d="M22.952,30.891H7.049c-2.184,0-3.958-1.775-3.958-3.958V11.031c0-2.184,1.774-3.959,3.958-3.959h15.902
			c2.182,0,3.957,1.775,3.957,3.959v15.901C26.909,29.115,25.133,30.891,22.952,30.891z M7.049,8.824
			c-1.217,0-2.207,0.989-2.207,2.207v15.901c0,1.217,0.99,2.207,2.207,2.207h15.902c1.216,0,2.206-0.99,2.206-2.207V11.031
			c0-1.218-0.99-2.207-2.206-2.207H7.049z"/>
	</g>
	<g>
		<circle fill="#FFFFFF" cx="15" cy="18.981" r="4.301"/>
	</g>
	<g>
		<path fill="#FFFFFF" d="M22.902,8.824H7.098V7.948c0-4.356,3.545-7.901,7.902-7.901s7.901,3.545,7.901,7.901V8.824z M8.912,7.072
			h12.178C20.662,4.095,18.094,1.799,15,1.799C11.906,1.799,9.338,4.095,8.912,7.072z"/>
	</g>
</g>
</svg>
