<?xml version="1.0" encoding="utf-8"?>
<!-- Generator: Adobe Illustrator 16.0.4, SVG Export Plug-In . SVG Version: 6.00 Build 0)  -->
<!DOCTYPE svg PUBLIC "-//W3C//DTD SVG 1.1//EN" "http://www.w3.org/Graphics/SVG/1.1/DTD/svg11.dtd">
<svg version="1.1" id="Layer_1" xmlns="http://www.w3.org/2000/svg" xmlns:xlink="http://www.w3.org/1999/xlink" x="0px" y="0px"
	 width="30px" height="30.938px" viewBox="0 0 30 30.938" enable-background="new 0 0 30 30.938" xml:space="preserve">
<g>
	<g>
		<path fill="#FFFFFF" d="M30,30.938H0v-7.001l0.193-0.253c0.184-0.239,4.609-5.862,14.784-6.104
			c10.228-0.256,14.672,5.997,14.856,6.263L30,24.082V30.938z M1.875,29.062h26.25v-4.368c-0.367-0.45-1.348-1.541-2.992-2.603
			c-2.857-1.843-6.262-2.728-10.11-2.639C6.866,19.647,2.776,23.604,1.875,24.6V29.062z"/>
	</g>
	<g>
		<path fill="#FFFFFF" d="M15,15c-4.135,0-7.5-3.364-7.5-7.5C7.5,3.365,10.865,0,15,0s7.5,3.365,7.5,7.5
			C22.5,11.636,19.135,15,15,15z M15,1.875c-3.102,0-5.625,2.523-5.625,5.625c0,3.103,2.523,5.625,5.625,5.625
			c3.101,0,5.625-2.522,5.625-5.625C20.625,4.398,18.101,1.875,15,1.875z"/>
	</g>
</g>
</svg>
