<?xml version="1.0" encoding="utf-8"?>
<!DOCTYPE svg PUBLIC "-//W3C//DTD SVG 1.1//EN" "http://www.w3.org/Graphics/SVG/1.1/DTD/svg11.dtd">
<svg version="1.1" id="reply" xmlns="http://www.w3.org/2000/svg" xmlns:xlink="http://www.w3.org/1999/xlink" x="0px" y="0px"
	 width="18.351px" height="16.369px" viewBox="0 0 18.351 16.369" enable-background="new 0 0 18.351 16.369" xml:space="preserve">
<g>
	<path fill="#4D4D4D" d="M18.285,9.5c-0.234-1.724-0.793-3.266-2.204-4.382c-1.054-0.834-2.285-1.271-3.588-1.516
		c-0.653-0.123-1.316-0.198-2.01-0.3c0-0.128,0-0.257,0-0.386c-0.001-0.739-0.005-1.479,0.001-2.22
		c0.003-0.312-0.127-0.531-0.412-0.645c-0.27-0.108-0.51-0.047-0.718,0.162C7.625,1.946,5.892,3.673,4.168,5.408
		C3.844,5.735,3.851,6.062,4.172,6.385c1.726,1.733,3.456,3.463,5.191,5.188c0.095,0.095,0.235,0.174,0.365,0.196
		c0.438,0.075,0.747-0.206,0.751-0.68c0.008-0.82,0.002-1.642,0.002-2.521c0.389,0.045,0.707,0.072,1.023,0.119
		c0.938,0.139,1.847,0.372,2.661,0.881c1.214,0.761,1.744,1.943,1.876,3.298c0.092,0.955,0.031,1.926,0.035,2.89
		c0,0.23-0.106,0.506,0.223,0.597c0.302,0.083,0.382-0.166,0.479-0.37c0.133-0.279,0.273-0.556,0.396-0.841
		C17.942,13.34,18.559,11.516,18.285,9.5z"/>
	<path fill="#4D4D4D" d="M2.635,6.499C2.183,6.045,2.183,5.758,2.624,5.313c1.222-1.228,2.448-2.449,3.658-3.687
		c0.165-0.169,0.253-0.414,0.376-0.623C6.626,0.985,6.596,0.967,6.565,0.948C6.573,0.579,6.56,0.216,6.143,0.05
		C5.742-0.109,5.5,0.14,5.248,0.394C3.63,2.019,2.007,3.638,0.386,5.259c-0.516,0.515-0.516,0.769,0.003,1.287
		c1.629,1.63,3.259,3.259,4.889,4.888c0.084,0.084,0.167,0.174,0.265,0.24c0.28,0.195,0.697,0.119,0.896-0.153
		c0.223-0.304,0.163-1.055-0.105-1.323C5.1,8.965,3.867,7.733,2.635,6.499z"/>
</g>
</svg>
